<svg id="Capa_1" data-name="Capa 1" xmlns="http://www.w3.org/2000/svg" viewBox="0 0 239.7 40.01"><defs><style>.cls-1{fill:#fff;}</style></defs><path class="cls-1" d="M77.18,124.82V138H75.72v-11.6h-.27L71.63,137.5H70l-3.82-11.12H65.9V138H64.44V124.82h2.64L70.81,136l3.73-11.14Z" transform="translate(0 -119.99)"/><path class="cls-1" d="M93,134.59H87.36l-1,3.39H85l3.62-13.16h3.19L95.39,138H93.94Zm-5.31-1.31h5l-2-7.21h-1Z" transform="translate(0 -119.99)"/><path class="cls-1" d="M103.16,124.82H108a4.45,4.45,0,0,1,3.16,1,3.93,3.93,0,0,1,1,3q0,3.06-2.42,3.83l2.53,5.34h-1.62l-2.37-5h-3.73v5h-1.47Zm4.89,6.83c1.79,0,2.68-.93,2.68-2.78s-.9-2.76-2.7-2.76h-3.4v5.54Z" transform="translate(0 -119.99)"/><path class="cls-1" d="M123.08,126.13h-4v-1.31h9.51v1.31h-4V138h-1.44Z" transform="translate(0 -119.99)"/><path class="cls-1" d="M142.08,134.59h-5.63L135.5,138h-1.45l3.62-13.16h3.19L144.48,138H143Zm-5.31-1.31h5l-2-7.21h-1Z" transform="translate(0 -119.99)"/><path class="cls-1" d="M164.83,126.13h-4.05v-1.31h9.51v1.31h-4V138h-1.44Z" transform="translate(0 -119.99)"/><path class="cls-1" d="M179.06,137.47a3.82,3.82,0,0,1-1.63-2.16,12.3,12.3,0,0,1-.49-3.85,12.49,12.49,0,0,1,.5-3.87,4,4,0,0,1,1.63-2.23,6.8,6.8,0,0,1,6.13,0,4.05,4.05,0,0,1,1.64,2.23,15.34,15.34,0,0,1,0,7.77,3.8,3.8,0,0,1-1.61,2.13,6.05,6.05,0,0,1-3.09.68A5.86,5.86,0,0,1,179.06,137.47Zm5.33-1.13a2.79,2.79,0,0,0,1.11-1.68,15.36,15.36,0,0,0,0-6.38,3.16,3.16,0,0,0-1.13-1.78,4.59,4.59,0,0,0-4.45,0,3.1,3.1,0,0,0-1.13,1.77,12.45,12.45,0,0,0-.33,3.2,12.12,12.12,0,0,0,.32,3.16,2.9,2.9,0,0,0,1.13,1.72,4,4,0,0,0,2.26.54A3.93,3.93,0,0,0,184.39,136.34Z" transform="translate(0 -119.99)"/><path class="cls-1" d="M195.74,124.82h4.86a4.45,4.45,0,0,1,3.16,1,3.93,3.93,0,0,1,1.05,3q0,3.06-2.42,3.83l2.53,5.34h-1.61l-2.38-5H197.2v5h-1.46Zm4.88,6.83c1.79,0,2.69-.93,2.69-2.78a2.42,2.42,0,0,0-2.71-2.76h-3.4v5.54Z" transform="translate(0 -119.99)"/><path class="cls-1" d="M213.16,124.82H218a4.42,4.42,0,0,1,3.15,1,3.93,3.93,0,0,1,1,3c0,2-.8,3.32-2.42,3.83l2.54,5.34h-1.62l-2.38-5h-3.73v5h-1.46Zm4.89,6.83c1.78,0,2.68-.93,2.68-2.78s-.9-2.76-2.7-2.76h-3.41v5.54Z" transform="translate(0 -119.99)"/><path class="cls-1" d="M232,126.11v4.55h5.41v1.27H232v4.76h6.55V138h-8V124.82h8v1.29Z" transform="translate(0 -119.99)"/><polygon class="cls-1" points="18.94 19.88 21.58 22.53 21.58 19.26 16.63 14.31 16.63 30.59 12.91 34.38 12.91 5.56 16.07 8.72 18.39 11.04 21.58 14.24 21.58 11.04 10.61 0.06 10.61 40.01 14.56 35.99 18.27 32.21 18.94 31.53 18.94 19.88"/><polygon class="cls-1" points="10.61 0 10.61 0.04 10.64 0.04 10.61 0"/><polygon class="cls-1" points="36.87 5.56 39.18 3.26 27.32 3.26 15.47 3.26 17.77 5.56 27.32 5.56 36.87 5.56"/><polygon class="cls-1" points="44 0.04 44.04 0.04 44.04 0 44 0.04"/><polygon class="cls-1" points="33.71 8.72 29.08 8.72 29.08 34.38 27.32 34.38 25.57 34.38 25.57 8.72 20.93 8.72 23.25 11.04 23.25 36.68 27.32 36.68 31.39 36.68 31.39 11.04 33.71 8.72"/><polygon class="cls-1" points="33.06 14.24 36.26 11.04 38.58 8.72 41.73 5.56 41.73 34.38 38.01 30.59 38.01 14.31 33.06 19.26 33.06 22.53 35.71 19.88 35.71 31.53 36.37 32.21 40.08 35.99 44.04 40.01 44.04 0.06 33.06 11.04 33.06 14.24"/><path class="cls-1" d="M6.65,133.32,0,140l6.65,6.65v-3.83L3.83,140l2.82-2.82Zm41.34,0v3.83L50.81,140,48,142.81v3.83L54.65,140Z" transform="translate(0 -119.99)"/><path class="cls-1" d="M27.32,131" transform="translate(0 -119.99)"/><path class="cls-1" d="M67.67,149.82a2,2,0,0,1,.66,1,5.64,5.64,0,0,1,.16,1.45,4.21,4.21,0,0,1-.54,2.41,2,2,0,0,1-1.69.76H64.1v-6.05h2.16A2.23,2.23,0,0,1,67.67,149.82Zm.13,2.54a3.32,3.32,0,0,0-.37-1.79,1.31,1.31,0,0,0-1.17-.55H64.77v4.85h1.49C67.29,154.87,67.8,154,67.8,152.36Z" transform="translate(0 -119.99)"/><path class="cls-1" d="M72.46,155a2.57,2.57,0,0,1-.41-1.63,3,3,0,0,1,.44-1.8,2,2,0,0,1,2.71-.09,2.39,2.39,0,0,1,.43,1.55l0,.49H72.71a2.4,2.4,0,0,0,.12.85.79.79,0,0,0,.4.44A1.86,1.86,0,0,0,74,155l.59,0c.22,0,.42,0,.6,0l.25,0,0,.51a10.7,10.7,0,0,1-1.61.14A1.7,1.7,0,0,1,72.46,155ZM75,153a1.91,1.91,0,0,0-.25-1.13,1,1,0,0,0-.83-.34,1.07,1.07,0,0,0-.89.36,1.8,1.8,0,0,0-.3,1.11Z" transform="translate(0 -119.99)"/><path class="cls-1" d="M79.36,155.43l-.26,0,0-.57a11.51,11.51,0,0,0,1.5.15,1.52,1.52,0,0,0,.79-.17.62.62,0,0,0,.25-.55.61.61,0,0,0-.12-.41.79.79,0,0,0-.33-.2,3.28,3.28,0,0,0-.55-.11l-.22,0a4.17,4.17,0,0,1-.82-.21.93.93,0,0,1-.45-.34,1.12,1.12,0,0,1-.14-.62,1.14,1.14,0,0,1,.42-1,2.11,2.11,0,0,1,1.22-.3,7.85,7.85,0,0,1,1.26.11l.25.05,0,.56a9.76,9.76,0,0,0-1.47-.14,1.52,1.52,0,0,0-.76.15.54.54,0,0,0-.25.49.53.53,0,0,0,.12.37.77.77,0,0,0,.32.18,4.65,4.65,0,0,0,.56.12l.22,0a4.54,4.54,0,0,1,.83.22.91.91,0,0,1,.44.37,1.18,1.18,0,0,1,.15.65,1.25,1.25,0,0,1-.42,1,2.08,2.08,0,0,1-1.27.32A8.44,8.44,0,0,1,79.36,155.43Z" transform="translate(0 -119.99)"/><path class="cls-1" d="M86,155.21a1.38,1.38,0,0,1-.32-1,1.25,1.25,0,0,1,.32-.93,1.78,1.78,0,0,1,1-.38l1.37-.13v-.37c0-.56-.24-.83-.71-.83a17,17,0,0,0-1.72.11l0-.5a9.11,9.11,0,0,1,1.7-.19A1.22,1.22,0,0,1,89,152.42v2.23c0,.22.18.35.5.39l0,.51a1.38,1.38,0,0,1-1-.35,3.69,3.69,0,0,1-1.57.35A1.17,1.17,0,0,1,86,155.21Zm2.19-.41.2-.07v-1.44l-1.29.12a.88.88,0,0,0-.57.23.85.85,0,0,0-.17.56c0,.54.22.8.66.8A3.43,3.43,0,0,0,88.18,154.8Z" transform="translate(0 -119.99)"/><path class="cls-1" d="M93,151.1h.65v.59a4.45,4.45,0,0,1,1.6-.69v.67a4,4,0,0,0-.74.21,6.52,6.52,0,0,0-.64.27l-.21.11v3.21H93Z" transform="translate(0 -119.99)"/><path class="cls-1" d="M98.59,151.1h.65v.59a4.45,4.45,0,0,1,1.6-.69v.67a4.21,4.21,0,0,0-.74.21,6.19,6.19,0,0,0-.63.27l-.22.11v3.21h-.66Z" transform="translate(0 -119.99)"/><path class="cls-1" d="M104.72,155.32a1.26,1.26,0,0,1-.59-.72,4.11,4.11,0,0,1-.17-1.29,4,4,0,0,1,.18-1.33,1.32,1.32,0,0,1,.6-.74,2.24,2.24,0,0,1,1.09-.23,2.12,2.12,0,0,1,1.09.24,1.32,1.32,0,0,1,.59.73,3.75,3.75,0,0,1,.19,1.33,3.81,3.81,0,0,1-.18,1.29,1.24,1.24,0,0,1-.58.72,2.79,2.79,0,0,1-2.22,0Zm1.85-.5a.78.78,0,0,0,.35-.51,3.75,3.75,0,0,0,.1-1,4.07,4.07,0,0,0-.1-1.05.85.85,0,0,0-.36-.52,1.33,1.33,0,0,0-.72-.16,1.34,1.34,0,0,0-.73.16.82.82,0,0,0-.37.52,4,4,0,0,0-.11,1.05,3.8,3.8,0,0,0,.1,1,.86.86,0,0,0,.36.51,1.39,1.39,0,0,0,.75.17A1.33,1.33,0,0,0,106.57,154.82Z" transform="translate(0 -119.99)"/><path class="cls-1" d="M111.44,149.19h.65v6.28h-.65Z" transform="translate(0 -119.99)"/><path class="cls-1" d="M116.07,149.19h.66v6.28h-.66Z" transform="translate(0 -119.99)"/><path class="cls-1" d="M121.18,155.32a1.26,1.26,0,0,1-.59-.72,3.84,3.84,0,0,1-.17-1.29,4,4,0,0,1,.18-1.33,1.34,1.34,0,0,1,.59-.74,2.31,2.31,0,0,1,1.1-.23,2.12,2.12,0,0,1,1.09.24,1.32,1.32,0,0,1,.59.73,4,4,0,0,1,.19,1.33,3.81,3.81,0,0,1-.18,1.29,1.28,1.28,0,0,1-.58.72,2.79,2.79,0,0,1-2.22,0Zm1.85-.5a.82.82,0,0,0,.35-.51,3.75,3.75,0,0,0,.1-1,4.07,4.07,0,0,0-.1-1.05.85.85,0,0,0-.36-.52,1.34,1.34,0,0,0-.73-.16,1.39,1.39,0,0,0-.73.16.85.85,0,0,0-.36.52,3.61,3.61,0,0,0-.11,1.05,3.8,3.8,0,0,0,.1,1,.86.86,0,0,0,.36.51,1.7,1.7,0,0,0,1.48,0Z" transform="translate(0 -119.99)"/><path class="cls-1" d="M132,149.42h.7l1,5.45H134l1.23-5.4H136l1.23,5.4h.25l1-5.45h.69L138,155.47h-1.23l-1.14-5.17-1.15,5.17h-1.23Z" transform="translate(0 -119.99)"/><path class="cls-1" d="M142.79,155a2.64,2.64,0,0,1-.41-1.63,3,3,0,0,1,.44-1.8,2,2,0,0,1,2.71-.09,2.33,2.33,0,0,1,.43,1.55l0,.49H143a2.4,2.4,0,0,0,.12.85.79.79,0,0,0,.4.44,1.86,1.86,0,0,0,.79.14l.59,0c.22,0,.42,0,.6,0l.25,0,0,.51a10.7,10.7,0,0,1-1.61.14A1.7,1.7,0,0,1,142.79,155Zm2.51-2a1.91,1.91,0,0,0-.25-1.13,1,1,0,0,0-.83-.34,1.07,1.07,0,0,0-.89.36A1.8,1.8,0,0,0,143,153Z" transform="translate(0 -119.99)"/><path class="cls-1" d="M149.85,155.48l-.25,0v-6.27h.65v2.13a3.14,3.14,0,0,1,1.33-.31,1.66,1.66,0,0,1,.9.22,1.25,1.25,0,0,1,.49.72,4.57,4.57,0,0,1,.15,1.31,3.93,3.93,0,0,1-.19,1.39,1.24,1.24,0,0,1-.64.69,3.1,3.1,0,0,1-1.27.21A11.48,11.48,0,0,1,149.85,155.48Zm2.08-.68a.93.93,0,0,0,.42-.54,3.8,3.8,0,0,0,.11-1,3.55,3.55,0,0,0-.1-1,.88.88,0,0,0-.32-.52,1.08,1.08,0,0,0-.61-.15,3.52,3.52,0,0,0-1.18.25v3.08l.84,0A1.73,1.73,0,0,0,151.93,154.8Z" transform="translate(0 -119.99)"/><path class="cls-1" d="M162.84,155.47h-.65L161,151.1h.65l1.1,3.8H163l1.1-3.8h.65l-1.82,6.31h-.65Z" transform="translate(0 -119.99)"/><path class="cls-1" d="M173.49,155.21a1.75,1.75,0,0,1-.68-1,8.65,8.65,0,0,1,0-3.51,1.78,1.78,0,0,1,.67-1,2.38,2.38,0,0,1,1.39-.35,8.1,8.1,0,0,1,1.64.2l0,.56a9.23,9.23,0,0,0-1.52-.15,1.82,1.82,0,0,0-1,.24,1.31,1.31,0,0,0-.48.79,7.71,7.71,0,0,0-.12,1.57,6.26,6.26,0,0,0,.12,1.39,1.19,1.19,0,0,0,.48.76A1.9,1.9,0,0,0,175,155a7.59,7.59,0,0,0,1.44-.16l0,.58a8.22,8.22,0,0,1-1.59.18A2.52,2.52,0,0,1,173.49,155.21Z" transform="translate(0 -119.99)"/><path class="cls-1" d="M180.6,155.32a1.26,1.26,0,0,1-.59-.72,3.84,3.84,0,0,1-.17-1.29A4,4,0,0,1,180,152a1.34,1.34,0,0,1,.59-.74,2.31,2.31,0,0,1,1.1-.23,2.12,2.12,0,0,1,1.09.24,1.32,1.32,0,0,1,.59.73,4,4,0,0,1,.19,1.33,3.81,3.81,0,0,1-.18,1.29,1.28,1.28,0,0,1-.58.72,2.79,2.79,0,0,1-2.22,0Zm1.85-.5a.78.78,0,0,0,.35-.51,3.75,3.75,0,0,0,.1-1,4.07,4.07,0,0,0-.1-1.05.85.85,0,0,0-.36-.52,1.33,1.33,0,0,0-.72-.16,1.34,1.34,0,0,0-.73.16.82.82,0,0,0-.37.52,4,4,0,0,0-.11,1.05,3.8,3.8,0,0,0,.1,1,.86.86,0,0,0,.36.51,1.39,1.39,0,0,0,.75.17A1.33,1.33,0,0,0,182.45,154.82Z" transform="translate(0 -119.99)"/><path class="cls-1" d="M187.26,151.1h.65v.3a3.47,3.47,0,0,1,.72-.3,2.59,2.59,0,0,1,.68-.09,1.51,1.51,0,0,1,.87.21,1.13,1.13,0,0,1,.43.67,4.75,4.75,0,0,1,.13,1.27v2.31h-.65v-2.29a4.59,4.59,0,0,0-.07-1,.8.8,0,0,0-.27-.49,1,1,0,0,0-.56-.14,2.46,2.46,0,0,0-.6.07,2.75,2.75,0,0,0-.51.17l-.16.08v3.55h-.66Z" transform="translate(0 -119.99)"/><path class="cls-1" d="M194.66,155.43l-.26,0,0-.57a11.62,11.62,0,0,0,1.51.15,1.46,1.46,0,0,0,.78-.17.63.63,0,0,0,.26-.55.61.61,0,0,0-.13-.41.76.76,0,0,0-.32-.2,3.68,3.68,0,0,0-.56-.11l-.22,0a4.17,4.17,0,0,1-.82-.21.9.9,0,0,1-.44-.34,1.37,1.37,0,0,1,.28-1.62A2.08,2.08,0,0,1,196,151a8,8,0,0,1,1.27.11l.24.05,0,.56a9.65,9.65,0,0,0-1.47-.14,1.52,1.52,0,0,0-.76.15.56.56,0,0,0-.25.49.53.53,0,0,0,.12.37.83.83,0,0,0,.32.18,4.65,4.65,0,0,0,.56.12l.22,0a4.93,4.93,0,0,1,.84.22,1,1,0,0,1,.44.37,1.54,1.54,0,0,1-.27,1.69,2.11,2.11,0,0,1-1.28.32A8.56,8.56,0,0,1,194.66,155.43Z" transform="translate(0 -119.99)"/><path class="cls-1" d="M201.76,155.35a1.17,1.17,0,0,1-.43-.67,5.45,5.45,0,0,1-.12-1.3V151.1h.66v2.27a4.9,4.9,0,0,0,.07,1,.73.73,0,0,0,.25.47,1,1,0,0,0,.57.14,2.74,2.74,0,0,0,1.22-.32V151.1h.66v4.37H204v-.31a3.11,3.11,0,0,1-.66.3,2.53,2.53,0,0,1-.7.09A1.5,1.5,0,0,1,201.76,155.35Z" transform="translate(0 -119.99)"/><path class="cls-1" d="M208.57,149.19h.65v6.28h-.65Z" transform="translate(0 -119.99)"/><path class="cls-1" d="M213.72,155.42a.81.81,0,0,1-.36-.49,3.44,3.44,0,0,1-.11-1v-2.29h-.62v-.57h.62v-1.34h.65v1.34h1.39v.57H213.9v2.08a6.41,6.41,0,0,0,0,.73.52.52,0,0,0,.6.5l.77,0,0,.54a7.27,7.27,0,0,1-.94.09A1.42,1.42,0,0,1,213.72,155.42Z" transform="translate(0 -119.99)"/><path class="cls-1" d="M219.28,155.32a1.26,1.26,0,0,1-.59-.72,4.11,4.11,0,0,1-.17-1.29,4,4,0,0,1,.18-1.33,1.32,1.32,0,0,1,.6-.74,2.24,2.24,0,0,1,1.09-.23,2.12,2.12,0,0,1,1.09.24,1.32,1.32,0,0,1,.59.73,3.75,3.75,0,0,1,.19,1.33,3.81,3.81,0,0,1-.18,1.29,1.24,1.24,0,0,1-.58.72,2.79,2.79,0,0,1-2.22,0Zm1.85-.5a.78.78,0,0,0,.35-.51,3.75,3.75,0,0,0,.1-1,4.07,4.07,0,0,0-.1-1.05.85.85,0,0,0-.36-.52,1.33,1.33,0,0,0-.72-.16,1.34,1.34,0,0,0-.73.16.82.82,0,0,0-.37.52,4,4,0,0,0-.11,1.05,3.8,3.8,0,0,0,.1,1,.86.86,0,0,0,.36.51,1.39,1.39,0,0,0,.75.17A1.33,1.33,0,0,0,221.13,154.82Z" transform="translate(0 -119.99)"/><path class="cls-1" d="M225.94,151.1h.65v.59a4.45,4.45,0,0,1,1.6-.69v.67a4.21,4.21,0,0,0-.74.21,5.34,5.34,0,0,0-.63.27l-.22.11v3.21h-.66Z" transform="translate(0 -119.99)"/><path class="cls-1" d="M231.59,149.35h.64v.76h-.64Zm0,1.75h.64v4.37h-.64Z" transform="translate(0 -119.99)"/><path class="cls-1" d="M236.15,155.21a1.38,1.38,0,0,1-.32-1,1.25,1.25,0,0,1,.32-.93,1.72,1.72,0,0,1,1-.38l1.37-.13v-.37c0-.56-.24-.83-.72-.83s-1,0-1.72.11l0-.5a9.11,9.11,0,0,1,1.7-.19,1.46,1.46,0,0,1,1.08.34,1.47,1.47,0,0,1,.34,1.07v2.23c0,.22.18.35.5.39l0,.51a1.38,1.38,0,0,1-1-.35,3.73,3.73,0,0,1-1.58.35A1.16,1.16,0,0,1,236.15,155.21Zm2.19-.41.2-.07v-1.44l-1.29.12a.86.86,0,0,0-.57.23.8.8,0,0,0-.18.56c0,.54.23.8.67.8A3.43,3.43,0,0,0,238.34,154.8Z" transform="translate(0 -119.99)"/></svg>