<?xml version="1.0" encoding="UTF-8" standalone="no"?><!DOCTYPE svg PUBLIC "-//W3C//DTD SVG 1.1//EN" "http://www.w3.org/Graphics/SVG/1.1/DTD/svg11.dtd"><svg width="100%" height="100%" viewBox="0 0 3696 809" version="1.1" xmlns="http://www.w3.org/2000/svg" xmlns:xlink="http://www.w3.org/1999/xlink" xml:space="preserve" xmlns:serif="http://www.serif.com/" style="fill-rule:evenodd;clip-rule:evenodd;stroke-linejoin:round;stroke-miterlimit:2;"><rect id="martatorre-logo-horizontal-blanco" x="0.326" y="1.792" width="3692.56" height="805.438" style="fill:none;"/><path d="M1236.09,44.507c-16.68,0 -30.242,13.556 -30.242,30.23l-0,151.128c-17.223,2.898 -35.027,4.366 -52.969,4.366c-19.016,0 -37.85,-1.611 -56.042,-4.81l0,-150.684c0,-16.674 -13.562,-30.23 -30.235,-30.23l-224.943,0c-0.35,0 -0.688,0.056 -1.15,0.144c-1.337,0.05 -2.636,0.268 -4.723,0.637c-0.905,0.144 -1.799,0.287 -3.398,0.681c-5.048,1.637 -124.797,40.906 -245.814,143.232c-49.396,41.749 -92.35,88.82 -127.715,139.946c-35.364,-51.126 -78.312,-98.197 -127.726,-139.965c-121.012,-102.326 -240.773,-141.595 -245.815,-143.226c-2.998,-0.962 -6.116,-1.449 -9.264,-1.449c-6.453,0 -12.607,2.005 -17.792,5.791c-7.796,5.672 -12.444,14.806 -12.444,24.439l0,644.824c0,16.667 13.563,30.23 30.236,30.23l167.87,-0c16.667,-0 30.236,-13.563 30.236,-30.23l-0,-366.457c-0,-16.673 -13.569,-30.229 -30.236,-30.229c-16.673,-0 -30.236,13.556 -30.236,30.229l0,336.228l-107.411,-0l-0,-570.06c39.869,17.629 114.314,55.28 187.348,117.375c52.544,44.673 96.436,94.58 130.495,148.367c-55.618,100.234 -83.836,212.799 -83.836,334.572c0,8.078 3.149,15.668 8.865,21.378c5.697,5.716 13.294,8.858 21.384,8.858l176.653,-0.031c16.673,-0 30.229,-13.563 30.229,-30.23c0,-121.773 -28.199,-234.32 -83.816,-334.547c34.059,-53.774 77.944,-103.682 130.482,-148.342c72.984,-62.058 147.461,-99.74 187.342,-117.382l-0,570.067l-107.399,-0l0,-336.253c0,-16.673 -13.569,-30.229 -30.229,-30.229c-16.68,-0 -30.242,13.556 -30.242,30.229l-0,366.482c-0,16.673 13.562,30.236 30.242,30.236l167.864,-0c16.66,-0 30.223,-13.563 30.223,-30.236l-0,-553.799c33.696,36.052 88.539,82.13 164.49,106.824l0,446.975c0,16.673 13.556,30.236 30.23,30.236l169.488,-0c16.661,-0 30.223,-13.563 30.223,-30.236l-0,-445.988c151.191,-47.658 221.638,-179.215 224.574,-184.806c4.886,-9.32 4.548,-20.696 -0.899,-29.686c-5.441,-9.008 -15.349,-14.599 -25.875,-14.599l-228.023,0Zm1065.82,691.243c-7.353,-4.367 -13.157,-10.308 -17.405,-17.823c-4.248,-7.509 -6.372,-15.793 -6.372,-24.844c0,-9.046 2.124,-17.342 6.372,-24.889c4.248,-7.54 10.033,-13.493 17.367,-17.866c7.315,-4.373 15.443,-6.56 24.376,-6.56c8.927,0 17.067,2.187 24.426,6.56c7.359,4.373 13.162,10.326 17.404,17.866c4.254,7.547 6.378,15.843 6.378,24.889c0,8.989 -2.124,17.26 -6.378,24.8c-4.242,7.54 -10.045,13.5 -17.404,17.867c-7.359,4.373 -15.499,6.559 -24.426,6.559c-8.864,0 -16.979,-2.186 -24.338,-6.559Zm-201.784,-0c-7.353,-4.367 -13.157,-10.308 -17.405,-17.823c-4.248,-7.509 -6.372,-15.793 -6.372,-24.844c0,-9.046 2.124,-17.342 6.372,-24.889c4.248,-7.54 10.033,-13.493 17.361,-17.866c7.321,-4.373 15.449,-6.56 24.382,-6.56c8.927,0 17.067,2.187 24.426,6.56c7.359,4.373 13.162,10.326 17.404,17.866c4.254,7.547 6.378,15.843 6.378,24.889c0,8.989 -2.124,17.26 -6.378,24.8c-4.242,7.54 -10.045,13.5 -17.404,17.867c-7.359,4.373 -15.499,6.559 -24.426,6.559c-8.865,0 -16.979,-2.186 -24.338,-6.559Zm619.855,2.355c-5.76,-2.799 -10.114,-6.522 -13.069,-11.176c-2.949,-4.648 -4.435,-9.645 -4.435,-15.005l10.257,-0c0.057,4.004 1.193,7.621 3.417,10.851c2.212,3.236 5.429,5.809 9.646,7.715c4.217,1.905 9.189,2.861 14.912,2.861c8.064,-0 14.318,-1.631 18.747,-4.898c4.435,-3.261 6.653,-7.759 6.653,-13.481c-0,-4.067 -1.05,-7.284 -3.136,-9.652c-2.099,-2.367 -4.991,-4.166 -8.683,-5.403c-3.699,-1.231 -8.628,-2.368 -14.775,-3.417c-6.528,-1.044 -12.1,-2.493 -16.717,-4.336c-4.616,-1.849 -8.358,-4.573 -11.226,-8.177c-2.861,-3.598 -4.285,-8.296 -4.285,-14.081c-0,-4.741 1.181,-9.096 3.548,-13.069c2.374,-3.973 5.96,-7.14 10.764,-9.508c4.798,-2.374 10.682,-3.561 17.635,-3.561c6.897,0 12.957,1.144 18.192,3.418c5.235,2.28 9.283,5.435 12.144,9.464c2.867,4.035 4.298,8.577 4.298,13.625l-10.533,-0.094c-0.181,-3.442 -1.274,-6.466 -3.273,-9.046c-1.999,-2.586 -4.792,-4.604 -8.359,-6.053c-3.573,-1.443 -7.727,-2.168 -12.469,-2.168c-4.616,0 -8.527,0.75 -11.725,2.262c-3.205,1.505 -5.617,3.529 -7.253,6.047c-1.631,2.53 -2.449,5.36 -2.449,8.496c-0,3.51 0.787,6.372 2.361,8.589c1.562,2.218 4.136,4.048 7.709,5.498c3.567,1.443 8.496,2.692 14.774,3.735c6.841,1.112 12.594,2.449 17.273,4.017c4.679,1.575 8.665,4.192 11.963,7.853c3.286,3.667 4.936,8.696 4.936,15.099c-0,5.91 -1.481,10.945 -4.43,15.099c-2.961,4.16 -7.146,7.315 -12.562,9.464c-5.417,2.155 -11.826,3.236 -19.21,3.236c-8.009,0 -14.88,-1.399 -20.64,-4.204Zm-973.091,-0c-5.759,-2.799 -10.114,-6.522 -13.068,-11.176c-2.955,-4.648 -4.436,-9.645 -4.436,-15.005l10.258,-0c0.056,4.004 1.193,7.621 3.417,10.851c2.211,3.236 5.429,5.809 9.645,7.715c4.217,1.905 9.19,2.861 14.912,2.861c8.065,-0 14.318,-1.631 18.747,-4.898c4.436,-3.261 6.653,-7.759 6.653,-13.481c0,-4.067 -1.049,-7.284 -3.136,-9.652c-2.099,-2.367 -4.991,-4.166 -8.683,-5.403c-3.698,-1.231 -8.627,-2.368 -14.774,-3.417c-6.528,-1.044 -12.107,-2.493 -16.717,-4.336c-4.617,-1.849 -8.359,-4.573 -11.226,-8.177c-2.861,-3.598 -4.292,-8.296 -4.292,-14.081c0,-4.741 1.187,-9.096 3.555,-13.069c2.374,-3.973 5.959,-7.14 10.763,-9.508c4.798,-2.374 10.677,-3.561 17.636,-3.561c6.896,0 12.956,1.144 18.191,3.418c5.235,2.28 9.283,5.435 12.144,9.464c2.861,4.035 4.298,8.577 4.298,13.625l-10.532,-0.094c-0.181,-3.442 -1.275,-6.466 -3.274,-9.046c-1.999,-2.586 -4.791,-4.604 -8.358,-6.053c-3.573,-1.443 -7.728,-2.168 -12.469,-2.168c-4.617,0 -8.527,0.75 -11.726,2.262c-3.205,1.505 -5.616,3.529 -7.253,6.047c-1.63,2.53 -2.449,5.36 -2.449,8.496c0,3.51 0.788,6.372 2.356,8.589c1.568,2.218 4.141,4.048 7.715,5.498c3.567,1.443 8.496,2.692 14.774,3.735c6.834,1.112 12.594,2.449 17.273,4.017c4.679,1.575 8.658,4.192 11.963,7.853c3.286,3.667 4.935,8.696 4.935,15.099c0,5.91 -1.48,10.945 -4.429,15.099c-2.961,4.16 -7.147,7.315 -12.563,9.464c-5.416,2.155 -11.825,3.236 -19.209,3.236c-8.009,0 -14.881,-1.399 -20.641,-4.204Zm1137.47,-2.357c-7.046,-4.367 -12.619,-10.308 -16.71,-17.823c-4.099,-7.509 -6.141,-15.792 -6.141,-24.838c-0,-9.052 2.042,-17.329 6.141,-24.845c4.091,-7.508 9.664,-13.449 16.71,-17.822c7.053,-4.373 14.793,-6.56 23.227,-6.56c5.972,0 11.588,1.069 16.854,3.186c5.267,2.124 9.883,5.142 13.856,9.052c3.967,3.911 7.059,8.484 9.277,13.712l0,-23.545l10.251,0l0,93.55l-10.251,-0l0,-23.364c-2.218,5.235 -5.31,9.801 -9.277,13.712c-3.973,3.911 -8.589,6.915 -13.856,9.002c-5.266,2.093 -10.882,3.142 -16.854,3.142c-8.434,0 -16.174,-2.186 -23.227,-6.559Zm-1042.17,-0c-7.053,-4.367 -12.626,-10.308 -16.717,-17.823c-4.092,-7.509 -6.141,-15.792 -6.141,-24.838c-0,-9.052 2.049,-17.329 6.141,-24.845c4.091,-7.508 9.664,-13.449 16.717,-17.822c7.053,-4.373 14.786,-6.56 23.226,-6.56c5.972,0 11.588,1.069 16.855,3.186c5.266,2.124 9.882,5.142 13.849,9.052c3.973,3.911 7.066,8.484 9.283,13.712l0,-23.545l10.252,0l-0,93.55l-10.252,-0l0,-23.364c-2.217,5.235 -5.31,9.801 -9.283,13.712c-3.967,3.911 -8.583,6.915 -13.849,9.002c-5.267,2.093 -10.883,3.142 -16.855,3.142c-8.44,0 -16.173,-2.186 -23.226,-6.559Zm1164.21,-0.044c-7.203,-4.404 -12.913,-10.357 -17.13,-17.866c-4.216,-7.509 -6.328,-15.762 -6.328,-24.751c0,-8.99 2.112,-17.254 6.328,-24.801c4.217,-7.54 9.927,-13.512 17.13,-17.916c7.203,-4.398 15.111,-6.597 23.732,-6.597c6.891,-0 13.288,1.305 19.166,3.923c5.878,2.617 10.907,6.278 15.093,10.989c4.192,4.71 7.265,10.113 9.239,16.211l-10.988,-0c-2.718,-6.654 -6.972,-11.814 -12.794,-15.474c-5.822,-3.661 -12.357,-5.491 -19.628,-5.491c-6.272,-0 -12.238,1.611 -17.861,4.847c-5.634,3.23 -10.182,7.815 -13.631,13.756c-3.442,5.941 -5.166,12.763 -5.166,20.459c0,7.759 1.743,14.606 5.216,20.547c3.48,5.941 8.034,10.545 13.669,13.806c5.635,3.267 11.557,4.897 17.773,4.897c7.271,0 13.793,-1.868 19.584,-5.591c5.785,-3.723 10.07,-9.002 12.838,-15.836l10.895,-0c-1.912,6.278 -4.954,11.788 -9.146,16.53c-4.186,4.741 -9.227,8.421 -15.143,11.038c-5.91,2.618 -12.275,3.923 -19.116,3.923c-8.621,0 -16.529,-2.199 -23.732,-6.603Zm-478.325,1.617c-6.253,-3.324 -11.101,-8.421 -14.549,-15.287c-3.448,-6.859 -5.166,-15.43 -5.166,-25.712l-0,-50.058l10.62,0l-0,49.776c-0,11.82 2.692,20.797 8.077,26.919c5.385,6.128 12.975,9.189 22.764,9.189c9.852,0 17.454,-3.029 22.814,-9.095c5.354,-6.066 8.034,-15.068 8.034,-27.013l-0,-49.776l10.614,0l-0,50.058c-0,10.282 -1.718,18.853 -5.167,25.712c-3.454,6.866 -8.252,11.963 -14.412,15.287c-6.153,3.323 -13.356,4.985 -21.608,4.985c-8.433,-0 -15.774,-1.662 -22.021,-4.985Zm-1003.75,-1.569c-7.109,-4.373 -12.712,-10.314 -16.804,-17.823c-4.098,-7.515 -6.147,-15.792 -6.147,-24.844c-0,-9.052 2.049,-17.348 6.147,-24.888c4.092,-7.54 9.695,-13.494 16.804,-17.873c7.109,-4.367 15.012,-6.553 23.689,-6.553c6.153,-0 11.869,1.199 17.129,3.598c5.26,2.405 9.758,5.56 13.488,9.465c3.717,3.916 6.565,8.177 8.539,12.793l-0.187,-8.496l-0,-51.25l10.626,-0l0,129.932l-10.257,-0l-0,-23.364c-2.156,5.048 -5.167,9.514 -9.046,13.394c-3.88,3.873 -8.421,6.921 -13.625,9.139c-5.204,2.218 -10.789,3.323 -16.761,3.323c-8.621,0 -16.486,-2.186 -23.595,-6.553Zm190.468,-40.916l-81.355,0c0.368,7.39 2.261,13.918 5.678,19.585c3.417,5.659 7.803,10.051 13.157,13.156c5.359,3.111 11.019,4.666 16.998,4.666c6.953,0 13.162,-1.68 18.61,-5.035c5.447,-3.354 9.401,-8.171 11.863,-14.449l11.913,-0c-1.906,5.722 -4.942,10.82 -9.096,15.28c-4.16,4.467 -9.096,7.94 -14.824,10.433c-5.722,2.498 -11.819,3.742 -18.285,3.742c-8.559,-0 -16.411,-2.187 -23.545,-6.554c-7.147,-4.373 -12.794,-10.313 -16.948,-17.822c-4.155,-7.516 -6.235,-15.762 -6.235,-24.751c0,-8.99 2.08,-17.261 6.235,-24.801c4.154,-7.54 9.801,-13.512 16.948,-17.916c7.134,-4.398 14.986,-6.597 23.545,-6.597c8.433,-0 16.13,2.136 23.089,6.416c6.953,4.279 12.438,10.007 16.442,17.179c3.998,7.165 5.997,14.88 5.997,23.133c0,1.418 -0.056,2.861 -0.187,4.335Zm1100.31,37.589c-5.204,-4.923 -7.803,-13.725 -7.803,-26.412l0,-50.145l-22.07,-0l-0,-9.602l22.07,0l0,-28.262l10.62,0l0,28.262l33.334,0l0,9.602l-33.334,-0l0,50.519c0,6.585 0.912,11.645 2.724,15.187c1.818,3.542 4.142,5.91 6.972,7.109c2.83,1.206 6.097,1.805 9.789,1.805l13.849,0l0,9.327l-15.698,0c-8.434,0 -15.249,-2.461 -20.453,-7.39Zm-562.088,-122.824l-10.62,-0l-0,130.213l10.62,0l-0,-130.213Zm379.831,-0l-10.613,-0l-0,130.213l10.613,0l0,-130.213Zm-424.435,-0l-10.62,-0l-0,130.213l10.62,0l-0,-130.213Zm469.045,-0l-10.619,-0l-0,130.213l10.619,0l0,-130.213Zm482.899,130.212l-32.603,-48.671l-19.853,22.077l-0,26.594l-10.62,-0l-0,-129.932l10.62,-0l-0,91.05l46.171,-54.667l13.119,-0l-31.678,37.769l37.126,55.78l-12.282,-0Zm-1200.37,-93.55l-0,24.288c2.405,-7.627 6.359,-13.593 11.869,-17.866c5.51,-4.286 11.932,-6.422 19.253,-6.422l8.309,-0l-0,9.608l-7.84,-0c-5.86,-0 -11.151,1.58 -15.886,4.754c-4.748,3.173 -8.484,7.746 -11.22,13.712c-2.742,5.972 -4.11,12.963 -4.11,20.965l-0,44.51l-10.714,0l-0,-93.549l10.339,-0Zm70.468,-0l0,24.288c2.399,-7.627 6.36,-13.593 11.863,-17.866c5.51,-4.286 11.932,-6.422 19.254,-6.422l8.314,-0l0,9.608l-7.846,-0c-5.853,-0 -11.151,1.58 -15.886,4.754c-4.742,3.173 -8.484,7.746 -11.22,13.712c-2.742,5.972 -4.11,12.963 -4.11,20.965l-0,44.51l-10.714,0l0,-93.549l10.345,-0Zm401.719,9.419l0,-9.42l21.24,-0l-0,-7.665c-0,-5.417 1.018,-10.346 3.049,-14.775c2.03,-4.435 5.016,-7.94 8.958,-10.526c3.935,-2.586 8.683,-3.879 14.224,-3.879l13.756,-0l0,9.233l-11.725,-0c-3.574,-0 -6.685,0.893 -9.327,2.68c-2.649,1.786 -4.698,4.248 -6.147,7.39c-1.443,3.136 -2.162,6.741 -2.162,10.801l0,6.741l28.437,-0l-0,9.42l-28.437,0l0,84.129l-10.626,-0l-0,-84.129l-21.24,0Zm-863.798,71.387c5.76,-3.448 10.314,-8.177 13.669,-14.175c3.36,-6.003 5.035,-12.637 5.035,-19.903c-0,-7.14 -1.675,-13.712 -5.035,-19.715c-3.355,-6.004 -7.909,-10.745 -13.669,-14.225c-5.753,-3.473 -12.05,-5.216 -18.878,-5.216c-6.903,-0 -13.213,1.724 -18.935,5.172c-5.729,3.449 -10.264,8.159 -13.619,14.131c-3.361,5.972 -5.035,12.594 -5.035,19.853c0,7.266 1.662,13.9 4.985,19.903c3.324,5.998 7.865,10.727 13.619,14.175c5.76,3.448 12.082,5.172 18.985,5.172c6.828,0 13.125,-1.724 18.878,-5.172Zm776.853,-0.046c5.691,-3.411 10.201,-8.109 13.524,-14.081c3.324,-5.972 4.992,-12.619 4.992,-19.947c-0,-7.209 -1.668,-13.793 -4.992,-19.766c-3.323,-5.972 -7.846,-10.682 -13.574,-14.13c-5.723,-3.442 -12.007,-5.173 -18.835,-5.173c-6.897,0 -13.213,1.731 -18.935,5.173c-5.728,3.448 -10.264,8.158 -13.618,14.13c-3.355,5.973 -5.036,12.557 -5.036,19.766c0,7.328 1.681,13.975 5.036,19.947c3.354,5.972 7.89,10.67 13.618,14.081c5.722,3.417 12.038,5.128 18.935,5.128c6.89,0 13.187,-1.711 18.885,-5.128Zm-201.785,-0c5.692,-3.411 10.202,-8.109 13.525,-14.081c3.324,-5.972 4.992,-12.619 4.992,-19.947c-0,-7.209 -1.668,-13.793 -4.992,-19.766c-3.323,-5.972 -7.846,-10.682 -13.574,-14.13c-5.723,-3.442 -12.007,-5.173 -18.835,-5.173c-6.903,0 -13.213,1.731 -18.935,5.173c-5.729,3.448 -10.264,8.158 -13.619,14.13c-3.354,5.973 -5.035,12.557 -5.035,19.766c0,7.328 1.681,13.975 5.035,19.947c3.355,5.972 7.89,10.67 13.619,14.081c5.722,3.417 12.032,5.128 18.935,5.128c6.89,0 13.187,-1.711 18.884,-5.128Zm-257.055,-0.046c5.722,-3.448 10.264,-8.159 13.619,-14.131c3.354,-5.966 5.029,-12.588 5.029,-19.853c-0,-7.14 -1.675,-13.7 -5.029,-19.672c-3.355,-5.966 -7.909,-10.695 -13.669,-14.174c-5.76,-3.48 -12.025,-5.216 -18.797,-5.216c-6.828,-0 -13.125,1.711 -18.885,5.122c-5.753,3.417 -10.307,8.096 -13.668,14.037c-3.355,5.941 -5.029,12.575 -5.029,19.903c-0,7.447 1.693,14.162 5.079,20.134c3.386,5.973 7.946,10.633 13.668,13.987c5.729,3.361 12.007,5.036 18.835,5.036c6.84,-0 13.119,-1.725 18.847,-5.173Zm1042.17,0c5.722,-3.448 10.264,-8.159 13.618,-14.131c3.361,-5.966 5.035,-12.588 5.035,-19.853c0,-7.14 -1.674,-13.7 -5.035,-19.672c-3.354,-5.966 -7.908,-10.695 -13.668,-14.174c-5.76,-3.48 -12.019,-5.216 -18.791,-5.216c-6.834,-0 -13.125,1.711 -18.885,5.122c-5.76,3.417 -10.308,8.096 -13.675,14.037c-3.354,5.941 -5.022,12.575 -5.022,19.903c-0,7.447 1.686,14.162 5.072,20.134c3.386,5.973 7.946,10.633 13.675,13.987c5.722,3.361 12.001,5.036 18.835,5.036c6.834,-0 13.112,-1.725 18.841,-5.173Zm-2469.7,-278.849c34.571,73.202 53.9,154.32 57.479,241.204l-114.964,0.025c3.567,-86.884 22.902,-168.002 57.485,-241.229Zm637.978,-161.43c18.279,2.661 37.12,4.005 56.042,4.005c17.904,-0 35.702,-1.2 52.969,-3.561l-0,402.215l-109.011,-0l0,-402.659Zm607.342,398.63c-0.312,-5.541 -2.08,-10.726 -5.316,-15.561c-3.23,-4.835 -7.465,-8.684 -12.694,-11.545c-5.235,-2.861 -10.87,-4.291 -16.898,-4.291c-5.666,-0 -11.026,1.293 -16.068,3.879c-5.054,2.58 -9.283,6.247 -12.7,10.988c-3.417,4.742 -5.622,10.252 -6.603,16.53l70.279,0Zm1166.63,-195.134c-17.605,-9.883 -31.554,-23.314 -41.856,-40.293c-10.301,-16.98 -15.448,-35.508 -15.448,-55.599c-0,-20.19 5.147,-38.719 15.448,-55.598c10.302,-16.874 24.251,-30.255 41.856,-40.144c17.597,-9.883 36.801,-14.83 57.61,-14.83c20.709,-0 39.856,4.947 57.466,14.83c17.592,9.889 31.541,23.27 41.849,40.144c10.301,16.879 15.449,35.408 15.449,55.598c-0,20.091 -5.148,38.619 -15.449,55.599c-10.308,16.979 -24.257,30.41 -41.849,40.293c-17.61,9.895 -36.757,14.83 -57.466,14.83c-20.809,0 -40.013,-4.935 -57.61,-14.83Zm610.535,-201.183l148.935,-0l0,43.642l-99.702,-0l-0,39.912l85.565,-0l0,40.993l-85.565,-0l-0,42.861l101.089,-0l0,43.798l-150.322,-0l-0,-211.206Zm-1980.79,-0l43.336,-0l65.688,90.85l-0,-0.156l66.618,-90.694l42.867,-0l0,211.206l-49.077,-0l0,-132.781l-54.193,75.939l-12.425,0l-53.581,-76.407l0,133.249l-49.233,-0l0,-211.206Zm411.461,211.205l-13.668,-34.321l-88.052,-0l-13.663,34.321l-52.025,0l86.659,-211.362l46.115,0l86.659,211.362l-52.025,0Zm585.683,0l-13.662,-34.321l-88.052,-0l-13.662,34.321l-52.025,0l86.652,-211.362l46.122,0l86.659,211.362l-52.032,0Zm-262.209,-167.412l-59.165,0l-0,-43.791l167.095,-0l0,43.791l-59.009,0l-0,167.408l-48.921,0l0,-167.408Zm462.702,0l-59.166,0l-0,-43.791l167.102,-0l-0,43.791l-59.016,0l0,167.408l-48.92,0l-0,-167.408Zm673.276,-43.792c14.693,0 27.85,3.005 39.444,9.008c11.595,6.004 20.628,14.387 27.1,25.157c6.472,10.77 9.708,23.089 9.708,36.964c-0,14.187 -3.599,26.681 -10.795,37.501c-7.197,10.82 -16.948,18.866 -29.268,24.145l45.029,78.425l-56.373,-0l-36.958,-70.654l-31.366,-0l0,70.654l-49.233,-0l0,-211.2l92.712,0Zm-202.576,0c14.693,0 27.849,3.005 39.443,9.008c11.595,6.004 20.622,14.387 27.1,25.157c6.466,10.77 9.702,23.089 9.702,36.964c-0,14.187 -3.592,26.681 -10.795,37.501c-7.191,10.82 -16.942,18.866 -29.268,24.145l45.035,78.425l-56.373,-0l-36.964,-70.654l-31.366,-0l-0,70.654l-49.233,-0l0,-211.2l92.719,0Zm-1086.6,0c14.699,0 27.849,3.005 39.443,9.008c11.595,6.004 20.628,14.387 27.1,25.157c6.472,10.77 9.708,23.089 9.708,36.964c-0,14.187 -3.598,26.681 -10.795,37.501c-7.197,10.82 -16.948,18.866 -29.267,24.145l45.028,78.425l-56.373,-0l-36.957,-70.654l-31.367,-0l0,70.654l-49.233,-0l0,-211.2l92.713,0Zm879.281,162.519c9.989,-5.647 17.904,-13.462 23.764,-23.451c5.841,-9.989 8.764,-21.203 8.764,-33.628c0,-12.525 -2.923,-23.782 -8.764,-33.771c-5.86,-9.989 -13.775,-17.804 -23.764,-23.446c-9.995,-5.647 -21.04,-8.471 -33.159,-8.471c-12.113,0 -23.196,2.824 -33.235,8.471c-10.039,5.642 -17.96,13.457 -23.757,23.446c-5.797,9.989 -8.69,21.246 -8.69,33.771c0,12.425 2.924,23.639 8.765,33.628c5.853,9.989 13.8,17.804 23.832,23.451c10.052,5.641 21.078,8.465 33.085,8.465c12.119,-0 23.164,-2.824 33.159,-8.465Zm-549.434,-26.479l55.749,-0l-26.244,-66.006l-1.393,-6.516l-0.469,0l-1.399,6.516l-26.244,66.006Zm-585.69,-0l55.749,-0l-26.244,-66.006l-1.393,-6.516l-0.468,0l-1.4,6.516l-26.244,66.006Zm1557.76,-40.298c4.448,-2.436 7.94,-5.797 10.483,-10.101c2.536,-4.292 3.804,-9.133 3.804,-14.512c0,-4.867 -1.299,-9.402 -3.879,-13.594c-2.593,-4.191 -6.116,-7.527 -10.558,-10.014c-4.454,-2.486 -9.327,-3.729 -14.605,-3.729l-41.462,-0l0,55.592l41.462,0c5.385,0 10.301,-1.212 14.755,-3.642Zm-202.583,0c4.448,-2.436 7.94,-5.797 10.483,-10.101c2.536,-4.292 3.804,-9.133 3.804,-14.512c-0,-4.867 -1.293,-9.402 -3.879,-13.594c-2.587,-4.191 -6.116,-7.527 -10.558,-10.014c-4.454,-2.486 -9.321,-3.729 -14.605,-3.729l-41.462,-0l-0,55.592l41.462,0c5.384,0 10.301,-1.212 14.755,-3.642Zm-1086.59,0c4.448,-2.436 7.94,-5.797 10.483,-10.101c2.536,-4.292 3.804,-9.133 3.804,-14.512c0,-4.867 -1.299,-9.402 -3.879,-13.594c-2.593,-4.191 -6.116,-7.527 -10.558,-10.014c-4.454,-2.486 -9.326,-3.729 -14.605,-3.729l-41.462,-0l0,55.592l41.462,0c5.385,0 10.301,-1.212 14.755,-3.642Zm-828.72,-279.782l140.158,0c-28.055,34.184 -74.296,78.413 -140.158,104.169l-0,-104.169Zm-367.45,0l137.509,0l0,103.27c-64.956,-25.913 -110.166,-69.586 -137.509,-103.27Z" style="fill:#fff;fill-rule:nonzero;"/></svg>